<?xml version="1.0" encoding="UTF-8" standalone="no"?>
<!-- Generator: Adobe Illustrator 17.1.0, SVG Export Plug-In . SVG Version: 6.00 Build 0)  -->

<svg
   xmlns:osb="http://www.openswatchbook.org/uri/2009/osb"
   xmlns:dc="http://purl.org/dc/elements/1.1/"
   xmlns:cc="http://creativecommons.org/ns#"
   xmlns:rdf="http://www.w3.org/1999/02/22-rdf-syntax-ns#"
   xmlns:svg="http://www.w3.org/2000/svg"
   xmlns="http://www.w3.org/2000/svg"
   xmlns:sodipodi="http://sodipodi.sourceforge.net/DTD/sodipodi-0.dtd"
   xmlns:inkscape="http://www.inkscape.org/namespaces/inkscape"
   version="1.1"
   id="Capa_1"
   x="0px"
   y="0px"
   viewBox="0 0 271.245 271.245"
   style="enable-background:new 0 0 271.245 271.245;"
   xml:space="preserve"
   sodipodi:docname="CarritoLleno.svg"
   inkscape:version="0.92.4 (5da689c313, 2019-01-14)"><metadata
   id="metadata4594"><rdf:RDF><cc:Work
       rdf:about=""><dc:format>image/svg+xml</dc:format><dc:type
         rdf:resource="http://purl.org/dc/dcmitype/StillImage" /><dc:title></dc:title></cc:Work></rdf:RDF></metadata><defs
   id="defs4592"><linearGradient
     id="linearGradient5495"
     osb:paint="solid"><stop
       style="stop-color:#1f6313;stop-opacity:1;"
       offset="0"
       id="stop5493" /></linearGradient></defs><sodipodi:namedview
   pagecolor="#ffffff"
   bordercolor="#666666"
   borderopacity="1"
   objecttolerance="10"
   gridtolerance="10"
   guidetolerance="10"
   inkscape:pageopacity="0"
   inkscape:pageshadow="2"
   inkscape:window-width="1366"
   inkscape:window-height="705"
   id="namedview4590"
   showgrid="false"
   inkscape:zoom="0.70125432"
   inkscape:cx="79.996937"
   inkscape:cy="94.226861"
   inkscape:window-x="-8"
   inkscape:window-y="-8"
   inkscape:window-maximized="1"
   inkscape:current-layer="Capa_1" />
<path
   d="M270.959,204.911L257.281,85.328c-0.433-3.788-3.639-6.552-7.451-6.552h-34.563c-8.75-36-41.017-62.307-79.395-62.307  S65.227,42.776,56.477,78.776H21.415c-3.813,0-7.019,2.764-7.451,6.552L0.286,204.959c-1.434,12.538,2.563,25.356,10.966,34.773  c8.401,9.417,20.459,15.044,33.079,15.044h182.583c12.62,0,24.677-5.65,33.078-15.067  C268.395,230.291,272.392,217.45,270.959,204.911z M135.872,31.469c30.044,0,55.508,19.307,63.853,47.307H72.019  C80.364,50.776,105.828,31.469,135.872,31.469z"
   id="path4557" />
<g
   id="g4559">
</g>
<g
   id="g4561">
</g>
<g
   id="g4563">
</g>
<g
   id="g4565">
</g>
<g
   id="g4567">
</g>
<g
   id="g4569">
</g>
<g
   id="g4571">
</g>
<g
   id="g4573">
</g>
<g
   id="g4575">
</g>
<g
   id="g4577">
</g>
<g
   id="g4579">
</g>
<g
   id="g4581">
</g>
<g
   id="g4583">
</g>
<g
   id="g4585">
</g>
<g
   id="g4587">
</g>
<path
   style="opacity:1;fill:#1f6313;fill-opacity:1;fill-rule:nonzero;stroke:#180303;stroke-width:27.59055138;stroke-linecap:square;stroke-linejoin:miter;stroke-miterlimit:19.89999962;stroke-dasharray:none;stroke-dashoffset:0;stroke-opacity:0;paint-order:stroke fill markers"
   id="path4598-0"
   sodipodi:type="arc"
   sodipodi:cx="100.33739"
   sodipodi:cy="106.41899"
   sodipodi:rx="12.477641"
   sodipodi:ry="12.477641"
   sodipodi:start="3.1560844"
   sodipodi:end="0"
   sodipodi:open="true"
   d="M 87.861056,106.23817 A 12.477641,12.477641 0 0 1 100.4278,93.941678 12.477641,12.477641 0 0 1 112.81503,106.41899" /><g
   id="g4724"
   transform="matrix(0.52094769,0,0,0.44805513,1.9019467,80.466)"><g
     id="g4690"><path
       style="fill:#76e2f8"
       d="m 407,135.85 h -46.901 c -24.598,0 -45.901,-5.7 -61.501,-16.5 C 286,110.649 271,106.15 256,106.15 c -15,0 -30,4.499 -42.598,13.2 -15.601,10.8 -36.903,16.5 -61.501,16.5 H 105 c -5.098,0 -10.203,0.3 -15,1.199 V 330.85 c 0,4.2 1.802,8.399 5.098,11.1 0.3,0.3 1.802,1.5 4.204,3.6 16.198,13.5 79.896,60.3 156.698,60.3 76.802,0 140.501,-46.8 156.698,-60.3 2.402,-2.1 3.904,-3.3 4.204,-3.6 3.296,-2.701 5.098,-6.899 5.098,-11.1 V 137.049 c -4.797,-0.899 -9.902,-1.199 -15,-1.199 z"
       id="path4688"
       inkscape:connector-curvature="0" /></g><path
     style="fill:#25d9f8"
     d="M 422,137.049 V 330.85 c 0,4.2 -1.802,8.399 -5.098,11.1 -0.3,0.3 -1.802,1.5 -4.204,3.6 -16.198,13.5 -79.896,60.3 -156.698,60.3 v -299.7 c 15,0 30,4.499 42.598,13.2 15.601,10.8 36.903,16.5 61.501,16.5 H 407 c 5.098,0 10.203,0.3 15,1.199 z"
     id="path4692"
     inkscape:connector-curvature="0" /><g
     id="g4700"><g
       id="g4698"><g
         id="g4696"><path
           style="fill:#a8ebfa"
           d="m 361,211.449 c -0.601,7.8 -7.2,14.101 -15,14.101 -0.3,0 -0.601,-0.3 -0.901,-0.3 -33.6,-2.1 -63.896,-11.1 -88.799,-26.7 0,0 -0.3,0 -0.3,0.3 -25.203,15.3 -55.8,24.3 -89.099,26.4 -9.001,0.601 -15.3,-5.7 -15.901,-13.801 -0.601,-8.399 5.698,-15.599 14.099,-15.899 31.802,-2.1 60.3,-11.4 82.8,-27.001 2.402,-2.1 5.398,-2.999 8.101,-2.999 2.999,0 6.299,0.899 9.302,2.999 21.599,15.601 49.797,24.901 81.599,27.001 8.401,0.3 14.7,7.5 14.099,15.899 z"
           id="path4694"
           inkscape:connector-curvature="0" /></g></g></g><g
     id="g4708"><g
       id="g4706"><g
         id="g4704"><path
           style="fill:#a8ebfa"
           d="m 331,270.85 c 0,8.399 -6.599,15 -15,15 H 196 c -8.401,0 -15,-6.601 -15,-15 0,-8.401 6.599,-15 15,-15 h 120 c 8.401,0 15,6.599 15,15 z"
           id="path4702"
           inkscape:connector-curvature="0" /></g></g></g><g
     id="g4716"><g
       id="g4714"><g
         id="g4712"><path
           style="fill:#a8ebfa"
           d="m 301,330.85 c 0,8.399 -6.599,15 -15,15 h -60 c -8.401,0 -15,-6.601 -15,-15 0,-8.401 6.599,-15 15,-15 h 60 c 8.401,0 15,6.599 15,15 z"
           id="path4710"
           inkscape:connector-curvature="0" /></g></g></g><path
     style="fill:#76e2f8"
     d="m 301,330.85 c 0,8.399 -6.599,15 -15,15 h -30 v -30 h 30 c 8.401,0 15,6.599 15,15 z"
     id="path4718"
     inkscape:connector-curvature="0" /><path
     style="fill:#76e2f8"
     d="m 331,270.85 c 0,8.399 -6.599,15 -15,15 h -60 v -30 h 60 c 8.401,0 15,6.599 15,15 z"
     id="path4720"
     inkscape:connector-curvature="0" /><path
     style="fill:#76e2f8"
     d="m 361,211.449 c -0.601,7.8 -7.2,14.101 -15,14.101 -0.3,0 -0.601,-0.3 -0.901,-0.3 -33.6,-2.1 -63.896,-11.1 -88.799,-26.7 0,0 -0.3,0 -0.3,0.3 v -33.3 c 2.999,0 6.299,0.899 9.302,2.999 21.599,15.601 49.797,24.901 81.599,27.001 8.401,0.3 14.7,7.5 14.099,15.899 z"
     id="path4722"
     inkscape:connector-curvature="0" /></g><path
   style="fill:#bbdcff;stroke-width:0.48312864"
   d="m 258.35088,88.400462 -0.20383,12.014258 c 1.96164,0.62423 -1.79031,-0.81169 0,0 0,0 14.86995,15.28657 10.60351,30.98142 -4.26632,15.69441 -20.79736,25.2694 -38.80096,23.57959 -2.51714,-0.26683 -5.15408,-0.7046 -7.71687,-1.40126 -4.22323,-1.14803 -8.31617,0.80337 -9.30356,4.43567 -0.98716,3.63143 -0.96651,4.86639 3.25671,6.01442 0.90588,0.24625 18.21944,-1.12434 0,0 28.06828,6.37589 52.69419,-7.96615 54.03315,-33.06636 1.16401,-21.82052 5.20915,-23.94571 -11.86815,-42.557738 z"
   id="path4686-9"
   inkscape:connector-curvature="0"
   sodipodi:nodetypes="cccscscccsc" /><path
   style="fill:#bbdcff;stroke-width:0.37812251"
   d="m 269.4017,192.84339 0.51688,3.90517 c 1.53097,2.1799 0.23104,0.39706 0,0 0,0 4.14742,6.1666 0.0423,16.15818 -4.10503,9.99128 -20.01111,16.08684 -37.33407,15.01109 -2.422,-0.16986 -4.95925,-0.44855 -7.42514,-0.89206 -4.06358,-0.73086 -8.00178,0.51144 -8.95185,2.82381 -0.94984,2.31182 -0.92997,3.09801 3.1336,3.82887 0.87163,0.15677 17.53065,-0.71578 0,0 27.00715,4.05898 50.70209,-5.07137 51.99042,-21.05053 1.12,-13.89125 -1.97211,-19.78453 -1.97211,-19.78453 z"
   id="path4686-9-7"
   inkscape:connector-curvature="0"
   sodipodi:nodetypes="cccscscccsc" /><path
   style="fill:#bbdcff;stroke-width:0.48312864"
   d="m 13.94322,88.400471 0.20383,12.014249 c -1.96164,0.62423 1.79031,-0.81169 0,0 0,0 -14.86995,15.28657 -10.60351,30.98142 4.26632,15.69441 20.79736,25.2694 38.80096,23.57959 2.51714,-0.26683 5.15408,-0.7046 7.71687,-1.40126 4.22323,-1.14803 8.31617,0.80337 9.30356,4.43567 0.98716,3.63143 0.96651,4.86639 -3.25671,6.01442 -0.90588,0.24625 -18.21944,-1.12434 0,0 C 28.03994,170.40045 3.41403,156.05841 2.07507,130.9582 0.91106,109.13768 -3.13408,107.01249 13.94322,88.400471 Z"
   id="path4686-9-6"
   inkscape:connector-curvature="0"
   sodipodi:nodetypes="cccscscccsc" /><path
   style="fill:#bbdcff;stroke-width:0.37812251"
   d="m 1.88874,191.88013 -0.51688,3.90517 c -1.53097,2.1799 -0.23104,0.39706 0,0 0,0 -4.14742,6.1666 -0.0423,16.15818 4.10503,9.99128 20.01111,16.08684 37.33407,15.01109 2.422,-0.16986 4.95925,-0.44855 7.42514,-0.89206 4.06358,-0.73086 8.00178,0.51144 8.95185,2.82381 0.94984,2.31182 0.92997,3.09801 -3.1336,3.82887 -0.87163,0.15677 -17.53065,-0.71578 0,0 -27.00715,4.05898 -50.70209,-5.07137 -51.99042,-21.05053 -1.12,-13.89125 1.97211,-19.78453 1.97211,-19.78453 z"
   id="path4686-9-7-8"
   inkscape:connector-curvature="0"
   sodipodi:nodetypes="cccscscccsc" /><path
   style="opacity:1;fill:#1f6313;fill-opacity:1;fill-rule:nonzero;stroke:#180303;stroke-width:27.59055138;stroke-linecap:square;stroke-linejoin:miter;stroke-miterlimit:19.89999962;stroke-dasharray:none;stroke-dashoffset:0;stroke-opacity:0;paint-order:stroke fill markers"
   id="path4598-0-7"
   sodipodi:type="arc"
   sodipodi:cx="172.87154"
   sodipodi:cy="105.73984"
   sodipodi:rx="12.477641"
   sodipodi:ry="12.477641"
   sodipodi:start="3.1560844"
   sodipodi:end="0"
   sodipodi:open="true"
   d="m 160.39521,105.55902 a 12.477641,12.477641 0 0 1 12.56674,-12.296496 12.477641,12.477641 0 0 1 12.38723,12.477316" /></svg>